HIERARCHY
ROOT Hips
{
	OFFSET -0.001795 -0.223333 0.028219
	CHANNELS 6 Xposition Yposition Zposition Zrotation Yrotation Xrotation 
	JOINT LeftUpLeg
	{
		OFFSET 0.069520 -0.091406 -0.006815
		CHANNELS 3 Zrotation Yrotation Xrotation
		JOINT LeftLeg
		{
			OFFSET 0.034277 -0.375199 -0.004496
			CHANNELS 3 Zrotation Yrotation Xrotation
			JOINT LeftFoot
			{
				OFFSET -0.013596 -0.397961 -0.043693
				CHANNELS 3 Zrotation Yrotation Xrotation
				JOINT LeftToe
				{
					OFFSET 0.026358 -0.055791 0.119288
					CHANNELS 3 Zrotation Yrotation Xrotation
					End Site
					{
						OFFSET 0.000000 0.000000 0.000000
					}
				}
			}
		}
	}
	JOINT RightUpLeg
	{
		OFFSET -0.067670 -0.090522 -0.004320
		CHANNELS 3 Zrotation Yrotation Xrotation
		JOINT RightLeg
		{
			OFFSET -0.038290 -0.382569 -0.008850
			CHANNELS 3 Zrotation Yrotation Xrotation
			JOINT RightFoot
			{
				OFFSET 0.015774 -0.398415 -0.042312
				CHANNELS 3 Zrotation Yrotation Xrotation
				JOINT RightToe
				{
					OFFSET -0.025372 -0.048144 0.123348
					CHANNELS 3 Zrotation Yrotation Xrotation
					End Site
					{
						OFFSET 0.000000 0.000000 0.000000
					}
				}
			}
		}
	}
	JOINT Spine
	{
		OFFSET -0.002533 0.108963 -0.026696
		CHANNELS 3 Zrotation Yrotation Xrotation
		JOINT Spine1
		{
			OFFSET 0.005487 0.135180 0.001092
			CHANNELS 3 Zrotation Yrotation Xrotation
			JOINT Spine2
			{
				OFFSET 0.001457 0.052922 0.025425
				CHANNELS 3 Zrotation Yrotation Xrotation
				JOINT Neck
				{
					OFFSET -0.002778 0.213870 -0.042857
					CHANNELS 3 Zrotation Yrotation Xrotation
					JOINT Head
					{
						OFFSET 0.005152 0.064970 0.051349
						CHANNELS 3 Zrotation Yrotation Xrotation
						End Site
						{
							OFFSET 0.000000 0.000000 0.000000
						}
					}
				}
				JOINT LeftShoulder
				{
					OFFSET 0.078845 0.121749 -0.034090
					CHANNELS 3 Zrotation Yrotation Xrotation
					JOINT LeftArm
					{
						OFFSET 0.090977 0.030469 -0.008868
						CHANNELS 3 Zrotation Yrotation Xrotation
						JOINT LeftForeArm
						{
							OFFSET 0.259612 -0.012772 -0.027456
							CHANNELS 3 Zrotation Yrotation Xrotation
							JOINT LeftHand
							{
								OFFSET 0.249234 0.008986 -0.001171
								CHANNELS 3 Zrotation Yrotation Xrotation
								End Site
								{
									OFFSET 0.000000 0.000000 0.000000
								}
							}
						}
					}
				}
				JOINT RightShoulder
				{
					OFFSET -0.081759 0.118833 -0.038615
					CHANNELS 3 Zrotation Yrotation Xrotation
					JOINT RightArm
					{
						OFFSET -0.096012 0.032551 -0.009143
						CHANNELS 3 Zrotation Yrotation Xrotation
						JOINT RightForeArm
						{
							OFFSET -0.253742 -0.013329 -0.021401
							CHANNELS 3 Zrotation Yrotation Xrotation
							JOINT RightHand
							{
								OFFSET -0.255298 0.007772 -0.005559
								CHANNELS 3 Zrotation Yrotation Xrotation
								End Site
								{
									OFFSET 0.000000 0.000000 0.000000
								}
							}
						}
					}
				}
			}
		}
	}
}
MOTION
Frames: 5
Frame Time: 0.050000
0.921779 0.816005 -0.659297 -173.309635 59.219116 172.672377 10.153601 -13.212399 -36.139896 -6.507296 -10.976639 31.450937 3.126719 14.484976 27.626979 0.000000 0.000000 0.000000 -1.936077 -12.481673 -23.820867 -77.781535 -9.102587 71.795736 86.813875 60.212805 50.649553 0.000000 0.000000 0.000000 -15.273410 -17.009542 42.609560 -15.315885 -0.947616 -4.119087 11.817202 33.786506 9.496919 1.929874 -1.908135 -6.787906 0.000000 0.000000 0.000000 -22.675895 -6.847561 -29.467957 -42.716751 27.279960 -10.150881 -47.273638 -48.118810 14.192122 0.000000 0.000000 0.000000 19.942800 -11.563482 10.342090 62.101457 -1.994471 -6.534374 10.522489 68.229403 21.638087 0.000000 0.000000 0.000000 
0.940959 0.819597 -0.693960 -173.179324 57.292123 175.215646 9.221040 -13.970306 -36.720308 -7.761403 -11.101321 31.143306 6.113356 13.715508 24.051859 0.000000 0.000000 0.000000 7.627108 -13.728845 -33.953129 -59.825856 -12.141708 60.846513 78.955243 52.829017 40.584145 0.000000 0.000000 0.000000 -16.636918 -19.930253 46.592344 -17.537827 -0.766145 -5.990218 14.232780 33.585257 9.863896 1.041232 0.551284 -9.165529 0.000000 0.000000 0.000000 -21.425345 -10.006998 -26.346339 -46.714608 22.991859 -9.752703 -46.007867 -60.381200 17.284610 0.000000 0.000000 0.000000 20.134778 -10.113251 11.018592 63.509275 -5.424349 -8.875378 12.875844 69.019464 23.269977 0.000000 0.000000 0.000000 
0.957536 0.822246 -0.729226 -173.653331 55.848327 176.121869 9.172029 -14.340114 -36.838887 -12.744251 -11.497232 31.593307 10.497863 14.585054 21.723980 0.000000 0.000000 0.000000 12.162072 -14.452899 -37.890488 -51.353295 -12.805146 56.085322 65.734139 44.887323 32.065048 0.000000 0.000000 0.000000 -18.098089 -22.243112 50.009607 -18.502369 -0.682173 -7.671806 14.518880 34.978078 9.960988 1.864851 -0.405009 -8.352181 0.000000 0.000000 0.000000 -21.990157 -8.973214 -26.572004 -44.462058 19.548076 -7.619830 -65.412041 -64.574995 33.231215 0.000000 0.000000 0.000000 21.487700 -12.834696 9.393004 61.017586 -7.254264 -9.892713 24.792566 69.857376 33.327150 0.000000 0.000000 0.000000 
0.972502 0.823494 -0.768406 -175.742292 55.190691 174.363786 9.491551 -14.003430 -36.440315 -23.225520 -12.781676 32.986842 15.809070 18.897300 22.179752 0.000000 0.000000 0.000000 13.729716 -13.486771 -37.886233 -55.228518 -12.420903 55.619353 53.218336 42.793702 24.407605 0.000000 0.000000 0.000000 -18.571274 -23.286563 51.426944 -16.905266 0.016393 -8.732591 12.911758 35.864134 12.312369 3.498344 -0.264748 -9.450797 0.000000 0.000000 0.000000 -22.387975 -10.657069 -27.496665 -43.325775 18.674317 -6.455239 -80.966986 -69.581374 50.994079 0.000000 0.000000 0.000000 19.445422 -13.008202 8.524885 62.153118 -8.663424 -9.068155 27.345705 71.953622 37.895954 0.000000 0.000000 0.000000 
0.985670 0.814417 -0.810131 -176.141895 55.147990 174.479350 12.522100 -16.134517 -39.804671 -35.210452 -14.656427 36.669040 15.894408 23.830700 25.601916 0.000000 0.000000 0.000000 13.574597 -14.809205 -39.369467 -58.642200 -11.502684 57.650294 47.925356 42.755874 21.074977 0.000000 0.000000 0.000000 -15.565915 -23.257893 49.929219 -18.359726 -0.756461 -7.294160 12.612897 36.435449 9.545778 3.372705 -0.477559 -9.221439 0.000000 0.000000 0.000000 -24.027378 -11.239738 -28.313924 -39.042435 19.796606 -5.065795 -90.384387 -69.485731 61.231904 0.000000 0.000000 0.000000 18.204503 -14.053366 6.350139 59.499353 -12.920171 -9.513239 38.845208 72.467536 48.481925 0.000000 0.000000 0.000000 
